<mxfile host="app.diagrams.net" modified="2024-07-03T02:56:51.306Z" agent="Mozilla/5.0 (Windows NT 10.0; Win64; x64) AppleWebKit/537.36 (KHTML, like Gecko) Chrome/124.0.0.0 Safari/537.36" version="24.6.4" etag="OKRR9NsI4uXen8emPXgJ" type="github">
  <diagram name="第 1 页" id="ahpg0IaZfVfQ-4M-jEvn">
    <mxGraphModel>
      <root>
        <mxCell id="0" />
        <mxCell id="1" parent="0" />
      </root>
    </mxGraphModel>
  </diagram>
</mxfile>
